<?xml version="1.0" encoding="UTF-8"?>
<svg id="Layer_1" xmlns="http://www.w3.org/2000/svg" xmlns:xlink="http://www.w3.org/1999/xlink" viewBox="0 0 1682.04 1008">
  <defs>
    <style>
      .cls-1 {
        fill: url(#linear-gradient-10);
      }

      .cls-2 {
        fill: url(#linear-gradient-12);
      }

      .cls-3 {
        fill: none;
      }

      .cls-4 {
        fill: url(#linear-gradient-4);
      }

      .cls-5 {
        fill: url(#linear-gradient-3);
      }

      .cls-6 {
        fill: url(#linear-gradient-5);
      }

      .cls-7 {
        fill: url(#linear-gradient-8);
      }

      .cls-8 {
        fill: url(#linear-gradient-2);
        fill-rule: evenodd;
      }

      .cls-9 {
        fill: url(#linear-gradient-7);
      }

      .cls-10 {
        fill: url(#linear-gradient-9);
      }

      .cls-11 {
        fill: url(#linear-gradient-11);
      }

      .cls-12 {
        fill: url(#linear-gradient-6);
      }

      .cls-13 {
        fill: url(#linear-gradient);
      }
    </style>
    <linearGradient id="linear-gradient" x1="2022.21" y1="789.17" x2="-2753.47" y2="841.82" gradientUnits="userSpaceOnUse">
      <stop offset=".11" stop-color="#9e1f63"/>
      <stop offset=".32" stop-color="#daaeb2"/>
      <stop offset=".42" stop-color="#da1c5c"/>
      <stop offset="1" stop-color="#45b649"/>
    </linearGradient>
    <linearGradient id="linear-gradient-2" x1="-662.66" y1="347.12" x2="3012.89" y2="993.79" gradientUnits="userSpaceOnUse">
      <stop offset="0" stop-color="#45b649"/>
      <stop offset=".13" stop-color="#f1583a"/>
      <stop offset=".28" stop-color="#ed2290"/>
      <stop offset=".65" stop-color="#633293"/>
      <stop offset=".73" stop-color="#3f5fac"/>
      <stop offset=".84" stop-color="#07bee0"/>
      <stop offset="1" stop-color="#45b649"/>
    </linearGradient>
    <linearGradient id="linear-gradient-3" x1="1035.15" y1="821.36" x2="2441.7" y2="1424.73" gradientUnits="userSpaceOnUse">
      <stop offset="0" stop-color="#ef4863"/>
      <stop offset=".13" stop-color="#f1583a"/>
      <stop offset=".28" stop-color="#ed2290"/>
      <stop offset=".65" stop-color="#633293"/>
      <stop offset=".73" stop-color="#3f5fac"/>
      <stop offset=".84" stop-color="#07bee0"/>
      <stop offset="1" stop-color="#45b649"/>
    </linearGradient>
    <linearGradient id="linear-gradient-4" x1="1313.87" y1="787.6" x2="2720.42" y2="1390.97" gradientUnits="userSpaceOnUse">
      <stop offset="0" stop-color="#ef4863"/>
      <stop offset=".13" stop-color="#f1583a"/>
      <stop offset=".65" stop-color="#633293"/>
      <stop offset=".73" stop-color="#3f5fac"/>
      <stop offset=".84" stop-color="#07bee0"/>
      <stop offset="1" stop-color="#45b649"/>
    </linearGradient>
    <linearGradient id="linear-gradient-5" x1="872.06" y1="527.59" x2="2278.61" y2="1130.96" gradientUnits="userSpaceOnUse">
      <stop offset="0" stop-color="#ef4863"/>
      <stop offset=".13" stop-color="#f1583a"/>
      <stop offset=".28" stop-color="#ed2290"/>
      <stop offset=".73" stop-color="#3f5fac"/>
      <stop offset=".84" stop-color="#07bee0"/>
      <stop offset="1" stop-color="#45b649"/>
    </linearGradient>
    <linearGradient id="linear-gradient-6" x1="1200.18" y1="554.73" x2="2606.73" y2="1158.09" gradientUnits="userSpaceOnUse">
      <stop offset="0" stop-color="#ef4863"/>
      <stop offset=".28" stop-color="#ed2290"/>
      <stop offset=".65" stop-color="#633293"/>
      <stop offset=".73" stop-color="#3f5fac"/>
      <stop offset=".84" stop-color="#07bee0"/>
      <stop offset=".93" stop-color="#f1583a"/>
      <stop offset="1" stop-color="#45b649"/>
    </linearGradient>
    <linearGradient id="linear-gradient-7" x1="-607.18" y1="31.77" x2="3068.38" y2="678.44" xlink:href="#linear-gradient-3"/>
    <linearGradient id="linear-gradient-8" x1="-691.59" y1="511.53" x2="2983.97" y2="1158.2" xlink:href="#linear-gradient-2"/>
    <linearGradient id="linear-gradient-9" x1="169.31" y1="399.83" x2="1145.22" y2="571.53" gradientUnits="userSpaceOnUse">
      <stop offset=".12" stop-color="#9e1f63"/>
      <stop offset=".15" stop-color="#daaeb2"/>
      <stop offset=".18" stop-color="#da1c5c"/>
      <stop offset="1" stop-color="#45b649"/>
    </linearGradient>
    <linearGradient id="linear-gradient-10" x1="110.65" y1="484.11" x2="1490.97" y2="726.96" xlink:href="#linear-gradient-9"/>
    <linearGradient id="linear-gradient-11" x1="50.45" y1="478.62" x2="2404.42" y2="892.77" xlink:href="#linear-gradient-9"/>
    <linearGradient id="linear-gradient-12" x1="182.04" y1="607.86" x2="1033.27" y2="757.62" xlink:href="#linear-gradient-9"/>
  </defs>
  <rect class="cls-3" width="1682.04" height="1008"/>
  <path class="cls-13" d="M1658.14,845.36c-.51,4.76-1.22,9.43-2.11,14.01-.6,3.1-1.29,6.15-2.06,9.16-5.41,21.08-14.77,39.97-27,55.27l-.07.05c-18.64,23.3-43.95,38.33-71.95,40.07-.9.05-1.8.09-2.71.12-.93.04-1.87.05-2.82.05H34.84v-81.22c0-1.13.35-2.22.99-3.14l163.07-232.25,2.24-3.19.02-.04,2.87-4.07.49-.72c.62.92,1.25,1.85,1.89,2.75,3.1,4.48,6.4,8.81,9.87,13.01.7.85,1.41,1.69,2.11,2.52.74.88,1.48,1.74,2.24,2.59h.02c.12.14.25.28.37.42,1.29,1.45,2.59,2.89,3.93,4.3l.02.02c.35.37.69.74,1.04,1.11l1.64,1.69c.21.21.44.44.63.65.74.74,1.5,1.5,2.26,2.22.58.6,1.18,1.18,1.8,1.74,1.08,1.06,2.19,2.1,3.3,3.12.78.7,1.55,1.39,2.33,2.1.18.16.33.32.49.44.81.7,1.62,1.41,2.43,2.1,1.53,1.3,3.05,2.56,4.6,3.81,1.32,1.08,2.7,2.13,4.05,3.17.65.49,1.32.99,1.97,1.48.3.23.58.44.88.63.78.6,1.57,1.16,2.36,1.71.97.71,1.92,1.37,2.91,2.03.05.04.12.09.18.12.6.41,1.2.83,1.82,1.22.63.44,1.25.85,1.89,1.25.6.39,1.22.79,1.83,1.18,1.13.72,2.24,1.41,3.37,2.1,1.16.7,2.33,1.39,3.52,2.1.62.35,1.25.72,1.9,1.06.97.58,1.94,1.11,2.93,1.62,1.25.7,2.5,1.37,3.79,2.03,1.64.85,3.31,1.67,4.99,2.48.12.05.23.11.33.16,1.18.56,2.38,1.13,3.56,1.66.33.16.67.3.99.46.33.14.65.28.99.42.65.3,1.32.58,1.99.86.53.25,1.08.46,1.64.69.12.05.21.11.33.14.79.33,1.57.65,2.38.97.16.07.32.14.49.21.23.09.44.16.67.25,1.41.58,2.85,1.11,4.28,1.62.46.18.9.33,1.36.49.72.28,1.45.53,2.19.78.7.23,1.41.48,2.11.7s1.41.48,2.11.69c.74.25,1.48.49,2.24.7,1.27.41,2.54.79,3.82,1.15,1.29.37,2.59.7,3.89,1.06.69.19,1.39.35,2.1.53.7.19,1.37.37,2.08.53h.02c.81.19,1.6.39,2.43.56,1.67.39,3.35.74,5.02,1.08.16.04.33.07.51.11s.33.07.49.07c.74.16,1.5.3,2.24.42.41.09.85.18,1.25.23,1.04.19,2.1.35,3.15.51.56.11,1.13.19,1.71.28,1.11.18,2.26.32,3.4.48.3.05.63.09.93.12,1.67.23,3.35.42,5.02.56.85.09,1.67.18,2.52.25.83.09,1.67.16,2.52.21.39.04.81.07,1.2.09.09.02.18.02.26.02.3.02,1.89-.67,2.19-.65,2.29,1.66,6.03-.43,6.03-.43l-77.78,111.38c-2.54,3.63.09,8.6,4.51,8.6l1367.08-.83Z"/>
  <path class="cls-8" d="M555.37,456.2c-1.11-2.85-2.29-5.66-3.52-8.42-24.35-54.56-72.55-96.15-131.43-111.48-1.41-.37-2.82-.72-4.23-1.06-14.82-3.54-30.31-5.41-46.22-5.41-109.93,0-199.1,89.1-199.1,198.96,0,40.6,12.16,78.37,33.1,109.84.19.28.37.56.56.85.62.92,1.25,1.85,1.89,2.75,3.1,4.48,6.4,8.81,9.87,13.01.7.85,1.41,1.69,2.11,2.52.74.88,1.48,1.74,2.24,2.59h.02c.12.14.25.28.37.42,1.29,1.45,2.59,2.89,3.93,4.3l.02.02c.35.37.69.74,1.04,1.11l1.64,1.69c.21.21.44.44.63.65.74.74,1.5,1.5,2.26,2.22.58.6,1.18,1.18,1.8,1.74,1.08,1.06,2.19,2.1,3.3,3.12.78.7,1.55,1.39,2.33,2.1.18.16.33.32.49.44.81.7,1.62,1.41,2.43,2.1,1.53,1.3,3.05,2.56,4.6,3.81,1.32,1.08,2.7,2.13,4.05,3.17.65.49,1.32.99,1.97,1.48.3.23.58.44.88.63.78.6,1.57,1.16,2.36,1.71.97.71,1.92,1.37,2.91,2.03.05.04.12.09.18.12.6.41,1.2.83,1.82,1.22.63.44,1.25.85,1.89,1.25.6.39,1.22.79,1.83,1.18,1.13.72,2.24,1.41,3.37,2.1,1.16.7,2.33,1.39,3.52,2.1.62.35,1.25.72,1.9,1.06.97.58,1.94,1.11,2.93,1.62,1.25.7,2.5,1.37,3.79,2.03,1.64.85,3.31,1.67,4.99,2.48.12.05.23.11.33.16,1.18.56,2.38,1.13,3.56,1.66.33.16.67.3.99.46.33.14.65.28.99.42.65.3,1.32.58,1.99.86.53.25,1.08.46,1.64.69.12.05.21.11.33.14.79.33,1.57.65,2.38.97.16.07.32.14.49.21.23.09.44.16.67.25,1.41.58,2.85,1.11,4.28,1.62.46.18.9.33,1.36.49.72.28,1.45.53,2.19.78.7.23,1.41.48,2.11.7s1.41.48,2.11.69c.74.25,1.48.49,2.24.7,1.27.41,2.54.79,3.82,1.15,1.29.37,2.59.7,3.89,1.06.69.19,1.39.35,2.1.53.7.19,1.37.37,2.08.53h.02c.81.19,1.6.39,2.43.56,1.67.39,3.35.74,5.02,1.08.16.04.33.07.51.11s.33.07.49.07c.74.16,1.5.3,2.24.42.41.09.85.18,1.25.23,1.04.19,2.1.35,3.15.51.56.11,1.13.19,1.71.28,1.11.18,2.26.32,3.4.48.3.05.63.09.93.12,1.67.23,3.35.42,5.02.56.85.09,1.67.18,2.52.25.83.09,1.67.16,2.52.21.39.04.81.07,1.2.09.09.02.18.02.26.02.3.02.58.04.88.05.11,0,.23.02.33.02.37.04.74.05,1.11.09.37.02.74.04,1.11.05.18.02.33.02.53.02.12,0,.23.02.35.02.14,0,.3.02.42.02h.19c1.15.05,2.31.09,3.45.12.18.02.35.02.51.02.69.02,1.36.04,2.03.04.97.04,1.96.04,2.93.04s1.94,0,2.91-.04c.67,0,1.36-.02,2.03-.04.18,0,.33,0,.51-.02,1.45-.04,2.86-.09,4.28-.16h.07c.23,0,.46,0,.67-.02,1.62-.09,3.24-.19,4.86-.32.85-.05,1.69-.12,2.52-.21.85-.07,1.69-.16,2.52-.25,1.67-.14,3.35-.33,5-.56.28-.04.6-.07.9-.12.21-.04.44-.05.67-.09.93-.12,1.87-.25,2.8-.39.56-.09,1.13-.18,1.71-.28,1.04-.16,2.1-.32,3.14-.51.41-.05.85-.14,1.25-.23.76-.12,1.52-.26,2.24-.42.18,0,.32-.04.49-.07.18-.04.35-.07.53-.11,1.67-.33,3.35-.69,5-1.08.81-.18,1.62-.37,2.43-.56h.02c.7-.16,1.39-.33,2.08-.53.74-.18,1.46-.35,2.17-.55,2.57-.65,5.11-1.37,7.63-2.17.92-.26,1.83-.56,2.75-.88,2.1-.67,4.21-1.37,6.27-2.13.86-.32,1.73-.62,2.57-.95,1.22-.44,2.41-.92,3.63-1.39.92-.35,1.82-.7,2.71-1.11.09-.04.18-.07.26-.11.55-.23,1.09-.44,1.64-.69.09-.04.18-.07.26-.12.58-.25,1.15-.48,1.71-.74.3-.12.58-.25.86-.39.3-.11.58-.23.85-.37.65-.3,1.32-.58,1.97-.9s1.3-.62,1.96-.93c1.76-.83,3.51-1.69,5.23-2.59,1.29-.65,2.54-1.32,3.79-2.03.83-.42,1.66-.86,2.47-1.34.92-.49,1.82-1.02,2.7-1.53,2.2-1.3,4.41-2.63,6.56-4,.62-.39,1.23-.79,1.83-1.18.63-.41,1.27-.81,1.89-1.25.62-.39,1.22-.81,1.83-1.22,2.13-1.44,4.25-2.96,6.31-4.49.67-.49,1.32-.99,1.97-1.48.16-.12.3-.23.44-.35.93-.7,1.85-1.43,2.78-2.15.92-.72,1.83-1.46,2.73-2.22.9-.74,1.8-1.5,2.7-2.26.81-.69,1.62-1.39,2.43-2.1.18-.14.35-.3.49-.44.78-.7,1.57-1.39,2.34-2.1.86-.79,1.73-1.6,2.57-2.41.85-.81,1.69-1.62,2.54-2.45.7-.67,1.39-1.36,2.08-2.06.42-.42.81-.81,1.2-1.23.55-.56,1.07-1.15,1.64-1.71,1.64-1.69,3.21-3.42,4.74-5.18.78-.88,1.55-1.76,2.31-2.66,1.55-1.78,3.03-3.58,4.48-5.41.72-.92,1.46-1.85,2.17-2.78.72-.93,1.41-1.87,2.11-2.82,1.45-1.94,2.89-3.93,4.25-5.96.58-.85,1.15-1.69,1.69-2.54.16-.21.32-.44.46-.67.53-.81,1.04-1.64,1.59-2.47.62-.99,1.23-1.99,1.87-2.98.62-1.02,1.22-2.03,1.8-3.05.62-1.02,1.2-2.04,1.76-3.07,1.73-3.03,3.35-6.12,4.92-9.25.05-.11.11-.21.12-.32.42-.85.85-1.69,1.23-2.54.16-.33.32-.63.46-.97.44-.92.86-1.85,1.29-2.78,11.21-24.87,17.43-52.46,17.43-81.52,0-25.61-4.85-50.12-13.68-72.59ZM547.58,599.1v.02c-28.02,70.6-97,120.58-177.62,120.58-2.41,0-4.81-.05-7.19-.16-52.25-1.92-99.15-24.87-132.44-60.62-.05-.04-.07-.05-.09-.09-.86-.9-1.69-1.82-2.48-2.73-.86-.92-1.67-1.85-2.47-2.8-.56-.6-1.07-1.22-1.57-1.83-.62-.7-1.2-1.41-1.76-2.15-.76-.88-1.5-1.8-2.2-2.71-.93-1.2-1.87-2.4-2.75-3.59-1.83-2.45-3.61-4.93-5.32-7.47-.92-1.37-1.82-2.73-2.7-4.11-3.77-5.89-7.21-11.97-10.31-18.26-.44-.9-.88-1.82-1.3-2.71-1.15-2.41-2.24-4.86-3.3-7.35-.56-1.37-1.13-2.71-1.66-4.07-1.18-2.98-2.29-5.97-3.31-9.02-.49-1.48-.99-2.96-1.45-4.46-.46-1.48-.9-2.96-1.32-4.44,0-.05-.02-.09-.04-.12-.42-1.48-.83-3-1.22-4.49-.37-1.43-.72-2.87-1.06-4.3-.04-.18-.09-.35-.12-.53-.33-1.46-.65-2.94-.93-4.41-.33-1.55-.63-3.1-.9-4.69-.23-1.23-.46-2.5-.65-3.75-.09-.51-.14-1-.21-1.5-.18-1.16-.35-2.33-.49-3.47-.05-.32-.09-.63-.12-.97-.16-1.09-.26-2.2-.37-3.3-.25-2.1-.44-4.19-.62-6.31-.05-.92-.11-1.82-.16-2.73-.05-.79-.11-1.57-.14-2.36-.16-3.12-.23-6.24-.23-9.39,0-1.64.02-3.3.07-4.92.02-1.27.07-2.56.14-3.82.02-.6.05-1.22.09-1.82.05-1.18.14-2.34.21-3.51.05-.7.11-1.43.18-2.13.07-.9.14-1.78.25-2.66.02-.37.07-.74.11-1.09.14-1.3.28-2.59.44-3.88.16-1.41.35-2.8.58-4.21.14-.95.26-1.9.44-2.84.19-1.25.41-2.52.63-3.75.23-1.29.48-2.56.76-3.84.25-1.25.51-2.52.81-3.75.16-.81.35-1.62.56-2.41.25-1.11.51-2.2.81-3.3.56-2.2,1.18-4.37,1.83-6.54.28-1.07.63-2.15.99-3.23.67-2.13,1.37-4.26,2.15-6.36.35-1.06.74-2.11,1.16-3.17.33-.93.7-1.87,1.07-2.77.16-.44.33-.86.53-1.29.12-.37.26-.7.41-1.06.07-.18.14-.35.23-.55.07-.19.16-.37.25-.55.21-.56.44-1.09.69-1.64.07-.16.16-.35.25-.53.55-1.29,1.11-2.57,1.71-3.84.23-.56.48-1.09.76-1.62.33-.78.69-1.52,1.07-2.27,7.86-16.28,18.01-31.25,30.08-44.48.19-.21.37-.41.55-.62.3-.32.62-.67.9-1,.85-.9,1.69-1.8,2.56-2.7,1.02-1.07,2.06-2.11,3.1-3.15,3.12-3.1,6.36-6.1,9.69-9.01.99-.86,1.99-1.71,3-2.54,1-.85,2.03-1.67,3.05-2.48,1.74-1.43,3.54-2.78,5.36-4.11.9-.69,1.82-1.36,2.75-1.99.9-.67,1.83-1.3,2.77-1.94,1.97-1.37,4-2.71,6.04-3.98.81-.53,1.64-1.04,2.48-1.53.95-.62,1.92-1.2,2.91-1.74.97-.58,1.96-1.15,2.94-1.69.97-.58,1.97-1.11,2.98-1.64.99-.56,2.01-1.09,3.01-1.59.99-.55,2.01-1.06,3.03-1.55,1.02-.51,2.04-1,3.07-1.48,2.1-1,4.19-1.96,6.34-2.84,1.02-.46,2.04-.88,3.05-1.29,5.29-2.17,10.71-4.09,16.21-5.76,1.11-.35,2.22-.67,3.33-.99.72-.21,1.43-.41,2.13-.58.62-.18,1.22-.35,1.85-.51.92-.23,1.83-.48,2.73-.69.88-.23,1.76-.42,2.64-.63.42-.11.83-.19,1.23-.28.69-.16,1.39-.32,2.1-.46,1.43-.3,2.85-.6,4.28-.85,1.04-.19,2.06-.39,3.1-.56,1.46-.25,2.91-.48,4.39-.69.79-.14,1.59-.25,2.38-.33.62-.09,1.22-.18,1.85-.25,1.62-.21,3.24-.39,4.88-.55.92-.09,1.83-.16,2.77-.25.55-.05,1.09-.09,1.67-.14h.16c1.15-.09,2.33-.18,3.47-.23,3.6-.21,7.21-.3,10.86-.3,14.12,0,27.9,1.53,41.13,4.44,1.43.32,2.86.63,4.28.99,9.04,2.2,17.82,5.04,26.29,8.48.02,0,.02.02.02.02,47.28,19.12,85.14,56.6,104.7,103.62,9.39,22.54,14.57,47.26,14.57,73.19s-4.74,48.55-13.38,70.32Z"/>
  <path class="cls-5" d="M871.54,806.81h-37.06l-143-270.89-144.37,270.89h-36.15l159.47-303.61v-.23l21.05-39.35,19.68,37.52,160.39,305.67Z"/>
  <path class="cls-4" d="M1037.19,502.29h-111.65v304.07l-33.18.23v-304.3h-111.19v-33.17h256.02v33.17Z"/>
  <path class="cls-6" d="M1297.1,592.2c0,43.01-15.41,75.43-46.22,97.24-19.53,13.58-39.66,21.59-60.4,24.02l95.41,92.89h-48.5l-94.72-92.2-32.03-31.57h58.34c16.62,0,32.95-3.96,48.96-11.9,30.2-15.1,45.3-41.26,45.3-78.48s-15.1-63.38-45.3-78.48c-15.87-7.93-32.19-11.9-48.96-11.9h-75.73v304.52h-33.17v-337.47h108.91c21.35,0,42.78,5.26,64.29,15.79,42.56,20.9,63.83,56.74,63.83,107.53Z"/>
  <path class="cls-12" d="M1658.14,806.81h-37.06l-143-270.89-144.37,270.89h-36.15l159.47-303.61v-.23l21.05-39.35,19.68,37.52,160.38,305.67Z"/>
  <path class="cls-9" d="M55.32,49.41v168.77h450.07l-79.16,113.17-2.03,2.91-.25.35-4.79,6.84-.41.58c9.16,2.01,18.06,4.65,26.7,7.9.02,0,.02.02.02.02,50.37,18.91,90.79,58.05,111.38,107.54l2.31-3.31,3.26-4.69,2.36-3.4,183.91-264.38V49.41H55.32Z"/>
  <path class="cls-7" d="M356.99,727.34c-.3-.02-.58-.04-.88-.05-.09,0-.18,0-.26-.02-.39-.02-.81-.05-1.2-.09-.85-.05-1.69-.12-2.52-.21-.85-.07-1.67-.16-2.52-.25-1.67-.14-3.35-.33-5.02-.56-.3-.04-.63-.07-.93-.12-1.15-.16-2.29-.3-3.4-.48-.58-.09-1.15-.18-1.71-.28-1.06-.16-2.11-.32-3.15-.51-.41-.05-.85-.14-1.25-.23-.74-.12-1.5-.26-2.24-.42-.16,0-.32-.04-.49-.07s-.35-.07-.51-.11c-1.67-.33-3.35-.69-5.02-1.08-.83-.18-1.62-.37-2.43-.56h-.02c-.7-.16-1.37-.33-2.08-.53-.7-.18-1.41-.33-2.1-.53-1.3-.35-2.61-.69-3.89-1.06-1.29-.35-2.56-.74-3.82-1.15-.76-.21-1.5-.46-2.24-.7-.7-.21-1.41-.46-2.11-.69s-1.41-.48-2.11-.7c-.74-.25-1.46-.49-2.19-.78-.46-.16-.9-.32-1.36-.49-1.43-.51-2.87-1.04-4.28-1.62-.23-.09-.44-.16-.67-.25-.18-.07-.33-.14-.49-.21-.81-.32-1.59-.63-2.38-.97-.12-.04-.21-.09-.33-.14-.56-.23-1.11-.44-1.64-.69-.67-.28-1.34-.56-1.99-.86-.33-.14-.65-.28-.99-.42-.32-.16-.65-.3-.99-.46-1.18-.53-2.38-1.09-3.56-1.66-.11-.05-.21-.11-.33-.16-1.67-.81-3.35-1.64-4.99-2.48-1.29-.65-2.54-1.32-3.79-2.03-.99-.51-1.96-1.04-2.93-1.62-.65-.33-1.29-.7-1.9-1.06-1.2-.71-2.36-1.39-3.52-2.1-1.13-.69-2.24-1.37-3.37-2.1-.62-.39-1.23-.79-1.83-1.18-.63-.41-1.25-.81-1.89-1.25-.62-.39-1.22-.81-1.82-1.22-.05-.04-.12-.09-.18-.12-.99-.65-1.94-1.32-2.91-2.03-.79-.55-1.59-1.11-2.36-1.71-.3-.19-.58-.41-.88-.63-.65-.49-1.32-.99-1.97-1.48-1.36-1.04-2.73-2.1-4.05-3.17-1.55-1.25-3.07-2.5-4.6-3.81-.81-.69-1.62-1.39-2.43-2.1-.16-.12-.32-.28-.49-.44-.78-.7-1.55-1.39-2.33-2.1-1.11-1.02-2.22-2.06-3.3-3.12-.62-.56-1.22-1.15-1.8-1.74-.76-.72-1.52-1.48-2.26-2.22-.19-.21-.42-.44-.63-.65l-1.64-1.69c-.35-.37-.69-.74-1.04-1.11l-.02-.02c-1.34-1.41-2.64-2.85-3.93-4.3-.12-.14-.25-.28-.37-.42h-.02c-.76-.85-1.5-1.71-2.24-2.59-.7-.83-1.41-1.67-2.11-2.52-3.47-4.19-6.77-8.53-9.87-13.01-.63-.9-1.27-1.83-1.89-2.75l1.76-2.52.02-.02c.9,1.41,1.83,2.8,2.77,4.19,1.74,2.59,3.58,5.13,5.45,7.63.92,1.23,1.87,2.45,2.84,3.67.72.93,1.46,1.87,2.24,2.78.58.74,1.18,1.46,1.8,2.19.53.63,1.06,1.25,1.62,1.87.81.97,1.64,1.92,2.52,2.87.83.93,1.71,1.87,2.56,2.78.02.04.04.05.09.09,21.02,22.5,47.35,40.04,76.99,50.61,15.51,5.55,31.97,9.2,49.01,10.66,1.09.09,2.04.48,2.82,1.06Z"/>
  <g>
    <path class="cls-10" d="M360.95,433.26l-39.5-19.69c-1.73-.86-3.54-1.56-5.42-2.09-2.93-.85-6.02-1.27-9.12-1.27-5.17,0-10.25,1.2-14.71,3.44-8.17,4.15-13.52,11.5-14.44,19.61h83.18Z"/>
    <polygon class="cls-1" points="395.17 454.81 395.17 453.96 277.6 453.96 277.6 593.69 395.17 454.81"/>
    <path class="cls-11" d="M508.89,507.82c-1.66-1.38-3.51-2.57-5.52-3.58l-7.23-3.61-74.26-37.01-117.6,139.17v.83h88.7l37.28-18.58,71.38-35.59,1.73-.86c9.12-4.54,14.77-13.03,14.77-22.18,0-7.12-3.43-13.84-9.23-18.6Z"/>
    <path class="cls-2" d="M278.83,624.33c2.1,6.17,6.83,11.54,13.37,14.85,4.46,2.26,9.54,3.46,14.71,3.46s10.12-1.16,14.54-3.37l29.98-14.94h-72.59Z"/>
  </g>
</svg>